<?xml version="1.0" encoding="UTF-8"?>
<svg id="Layer_2" data-name="Layer 2" xmlns="http://www.w3.org/2000/svg" viewBox="0 0 1042.48 490.77">
  <defs>
    <style>
      .cls-1 {
        fill: #4a1e5a;
        stroke-width: 0px;
      }
    </style>
  </defs>
  <g id="Layer_1-2" data-name="Layer 1">
    <g>
      <polygon class="cls-1" points="43.94 47.5 12.73 47.5 12.73 30.21 39.58 30.21 39.58 23.71 12.73 23.71 12.73 7.27 42.87 7.27 42.87 .61 5.08 .61 5.08 54.16 43.94 54.16 43.94 47.5"/>
      <polygon class="cls-1" points="78.6 54.16 102.08 .61 94.43 .61 75 44.59 55.73 .61 47.47 .61 71.03 54.16 78.6 54.16"/>
      <polygon class="cls-1" points="147.75 47.5 116.54 47.5 116.54 30.21 143.39 30.21 143.39 23.71 116.54 23.71 116.54 7.27 146.68 7.27 146.68 .61 108.89 .61 108.89 54.16 147.75 54.16 147.75 47.5"/>
      <path class="cls-1" d="M203.37,19.28c0-11.63-8.41-18.66-22.34-18.66h-20.88v53.54h7.65v-16.29h13.23c1.15,0,2.29-.08,3.37-.15l11.55,16.45h8.34l-12.7-17.98c7.5-2.68,11.78-8.64,11.78-16.91ZM180.8,31.36h-13V7.27h13c9.79,0,14.92,4.36,14.92,12.01s-5.12,12.09-14.92,12.09Z"/>
      <polygon class="cls-1" points="227.93 54.16 235.5 54.16 235.5 35.65 256.76 .61 249.19 .61 231.98 28.84 214.85 .61 206.66 .61 227.93 35.49 227.93 54.16"/>
      <path class="cls-1" d="M336.55,27.38c0-15.91-11.7-26.77-28.91-26.77h-22.57v53.54h22.57c17.21,0,28.91-10.86,28.91-26.77ZM292.72,47.5V7.27h14.46c13.23,0,21.72,8.11,21.72,20.12s-8.49,20.12-21.72,20.12h-14.46Z"/>
      <path class="cls-1" d="M372.43,54.77c16.29,0,28.38-11.63,28.38-27.38S388.72,0,372.43,0s-28.53,11.7-28.53,27.38,12.09,27.38,28.53,27.38ZM372.43,6.81c11.86,0,20.73,8.72,20.73,20.58s-8.87,20.58-20.73,20.58-20.88-8.72-20.88-20.58,8.87-20.58,20.88-20.58Z"/>
      <path class="cls-1" d="M436.69,54.77c16.29,0,28.38-11.63,28.38-27.38S452.98,0,436.69,0s-28.53,11.7-28.53,27.38,12.09,27.38,28.53,27.38ZM436.69,6.81c11.86,0,20.73,8.72,20.73,20.58s-8.87,20.58-20.73,20.58-20.88-8.72-20.88-20.58,8.87-20.58,20.88-20.58Z"/>
      <path class="cls-1" d="M484.43,37.86h13.23c1.15,0,2.29-.08,3.37-.15l11.55,16.45h8.34l-12.7-17.98c7.5-2.68,11.78-8.64,11.78-16.91,0-11.63-8.41-18.66-22.34-18.66h-20.88v53.54h7.65v-16.29ZM484.43,7.27h13c9.79,0,14.92,4.36,14.92,12.01s-5.12,12.09-14.92,12.09h-13V7.27Z"/>
      <path class="cls-1" d="M604.45,27.38c0-15.91-11.7-26.77-28.91-26.77h-22.57v53.54h22.57c17.21,0,28.91-10.86,28.91-26.77ZM560.62,47.5V7.27h14.46c13.23,0,21.72,8.11,21.72,20.12s-8.49,20.12-21.72,20.12h-14.46Z"/>
      <polygon class="cls-1" points="655.02 47.5 623.81 47.5 623.81 30.21 650.66 30.21 650.66 23.71 623.81 23.71 623.81 7.27 653.95 7.27 653.95 .61 616.16 .61 616.16 54.16 655.02 54.16 655.02 47.5"/>
      <path class="cls-1" d="M683.02,48.27c-6.88,0-13.69-2.6-17.67-6.2l-2.83,5.97c4.28,3.98,12.32,6.73,20.5,6.73,14.15,0,20.73-7.04,20.73-15.22,0-19.66-32.43-11.47-32.43-24.55,0-4.67,3.9-8.49,13-8.49,4.74,0,10.02,1.38,14.69,4.36l2.52-6.12c-4.44-3.06-10.94-4.74-17.21-4.74-14.07,0-20.5,7.04-20.5,15.3,0,19.89,32.43,11.63,32.43,24.71,0,4.67-3.98,8.26-13.23,8.26Z"/>
      <polygon class="cls-1" points="753.78 47.5 722.57 47.5 722.57 30.21 749.42 30.21 749.42 23.71 722.57 23.71 722.57 7.27 752.71 7.27 752.71 .61 714.92 .61 714.92 54.16 753.78 54.16 753.78 47.5"/>
      <path class="cls-1" d="M773.82,37.86h13.23c1.15,0,2.29-.08,3.37-.15l11.55,16.45h8.34l-12.7-17.98c7.5-2.68,11.78-8.64,11.78-16.91,0-11.63-8.41-18.66-22.34-18.66h-20.88v53.54h7.65v-16.29ZM773.82,7.27h13c9.79,0,14.92,4.36,14.92,12.01s-5.12,12.09-14.92,12.09h-13V7.27Z"/>
      <polygon class="cls-1" points="844.81 54.16 868.3 .61 860.65 .61 841.22 44.59 821.94 .61 813.68 .61 837.24 54.16 844.81 54.16"/>
      <polygon class="cls-1" points="913.97 47.5 882.76 47.5 882.76 30.21 909.61 30.21 909.61 23.71 882.76 23.71 882.76 7.27 912.9 7.27 912.9 .61 875.11 .61 875.11 54.16 913.97 54.16 913.97 47.5"/>
      <path class="cls-1" d="M962.7,39.55c0-19.66-32.43-11.47-32.43-24.55,0-4.67,3.9-8.49,13-8.49,4.74,0,10.02,1.38,14.69,4.36l2.52-6.12c-4.44-3.06-10.94-4.74-17.21-4.74-14.07,0-20.5,7.04-20.5,15.3,0,19.89,32.43,11.63,32.43,24.71,0,4.67-3.98,8.26-13.23,8.26-6.88,0-13.69-2.6-17.67-6.2l-2.83,5.97c4.28,3.98,12.32,6.73,20.5,6.73,14.15,0,20.73-7.04,20.73-15.22Z"/>
      <path class="cls-1" d="M1000.11,40.77h28.46l5.89,13.39h8.03L1018.16.61h-7.57l-24.25,53.54h7.88l5.89-13.39ZM1014.33,8.41l11.55,26.24h-23.1l11.55-26.24Z"/>
      <path class="cls-1" d="M815.79,119.61c0-35.14-51.8-34.68-51.8,0s51.8,35.13,51.8,0Z"/>
      <path class="cls-1" d="M1002.66,122.18h-56.78v168.45c0,64.25,39.21,78.13,93.66,78.13v-67.27c-14.63,0-36.87,4.53-36.87-17.04v-63.04h36.87v-46.3h-36.87v-52.93Z"/>
      <path class="cls-1" d="M573.9,313.4v55.36c30.01,0,71.12,4.52,101.12-2.57,43.6-9.8,56.63-59.27,23.84-91.23-6.87-6.64-57.79-35.45-47.99-47.51,3.51-4.37,51.21-.91,57.94-.91v-51.43h-70.82c-32.04,0-64.39,13.88-64.39,51.73s37.02,55.95,64.54,72.09c1.6.9,2.63,1.96,3.21,3.01,10.68,18.55-59.85,11.46-67.46,11.46Z"/>
      <path class="cls-1" d="M211.16,271.78c0,87.02,101.4,133.92,161.99,71.18,27.36-28.5,35.12-72.54,20.63-109.48-39.95-100.75-182.62-69.07-182.62,38.3ZM268.07,271.33c0-56.11,75.95-56.55,75.95,0s-75.95,56.4-75.95,0Z"/>
      <path class="cls-1" d="M500.89,247.2c10.83-9.81,26.04-14.02,46.68-13.28v-58.82c-13.17,0-27.67-.15-39.36,6.79-9.38,5.57-17.71,20.51-21.81,24.43l-.14-31.22h-62.04v193.65h64.96v-86.72c0-21.41,1.91-26.09,11.71-34.83Z"/>
      <path class="cls-1" d="M189.79,102.72h-61.17l-.14,152.47c0,27.15.73,57.62-33.8,57.62-21.08,0-36.43-18.86-36.43-39.82,0-29.42,22.23-44.5,48.14-37.85l.3-61.08c-3.08-.61-6.29-.61-9.51-.61C39.79,173.45,0,213.41,0,272.83c0,78.42,87.49,128.94,151.01,80.99,34.97-26.55,38.78-65.75,38.78-106.47V102.72Z"/>
      <path class="cls-1" d="M845.21,119.61c0,34.68,51.8,34.99,51.8,0s-51.8-34.83-51.8,0Z"/>
      <path class="cls-1" d="M827.35,300.73l100.24-55.34c-15.8-43.28-49.9-74.2-96.14-74.2-97.75,0-134.91,135.58-50.04,187.76,50.34,29.71,107.26,5.88,145.16-33.48l-32.92-39.22c-14.2,17.35-33.81,30.47-56.49,30.47-40.97,0-57.51-50.98-34.68-82.35,13.61-18.84,46.24-20.5,61.75-2.86l-57.07,30.46,20.19,38.76Z"/>
      <polygon class="cls-1" points="179.29 482.74 166.28 460.55 163.66 460.55 163.66 490.51 166.7 490.51 166.7 466.68 178.48 486.7 179.97 486.7 191.74 466.54 191.74 490.51 194.78 490.51 194.78 460.55 192.17 460.55 179.29 482.74"/>
      <path class="cls-1" d="M233.67,464.61c-1.41-1.37-3.08-2.43-4.99-3.19-1.91-.76-4-1.13-6.25-1.13s-4.38.38-6.29,1.13c-1.91.76-3.57,1.83-4.99,3.21-1.41,1.38-2.51,3-3.3,4.84-.79,1.84-1.18,3.86-1.18,6.06s.39,4.22,1.18,6.06c.78,1.84,1.88,3.45,3.3,4.84,1.41,1.38,3.08,2.46,5.01,3.21,1.93.76,4.02,1.13,6.27,1.13s4.34-.38,6.25-1.13c1.91-.75,3.57-1.82,4.99-3.19,1.41-1.37,2.51-2.98,3.3-4.84.78-1.85,1.18-3.88,1.18-6.08s-.39-4.22-1.18-6.08c-.79-1.86-1.88-3.47-3.3-4.84ZM234.03,480.47c-.63,1.5-1.51,2.81-2.63,3.94-1.13,1.13-2.45,2-3.98,2.61-1.53.61-3.19.92-4.99.92s-3.47-.31-5.01-.92-2.88-1.48-4.02-2.61c-1.14-1.13-2.03-2.45-2.65-3.96-.63-1.51-.94-3.15-.94-4.92s.31-3.45.94-4.94,1.51-2.81,2.65-3.94c1.14-1.13,2.48-2,4.02-2.61,1.54-.61,3.21-.92,5.01-.92s3.46.31,4.99.92c1.53.61,2.85,1.48,3.98,2.61s2,2.44,2.63,3.94c.63,1.5.94,3.15.94,4.94s-.31,3.45-.94,4.94Z"/>
      <path class="cls-1" d="M267.81,479.79c1.83-.81,3.23-1.98,4.22-3.51s1.48-3.35,1.48-5.46-.49-4.02-1.48-5.54c-.98-1.53-2.39-2.7-4.22-3.51s-4.01-1.22-6.55-1.22h-11.21v29.96h3.17v-9.5h8.05c.85,0,1.64-.06,2.4-.15l6.84,9.66h3.47l-7.33-10.29c.4-.13.8-.27,1.17-.43ZM261.17,478.31h-7.96v-15.02h7.96c3,0,5.27.66,6.83,1.97s2.33,3.17,2.33,5.56-.78,4.21-2.33,5.52-3.83,1.97-6.83,1.97Z"/>
      <polygon class="cls-1" points="288.95 476.64 304.45 476.64 304.45 473.95 288.95 473.95 288.95 463.29 306.33 463.29 306.33 460.55 285.79 460.55 285.79 490.51 306.97 490.51 306.97 487.77 288.95 487.77 288.95 476.64"/>
      <path class="cls-1" d="M351,476.45c-1.1-.58-2.3-1.06-3.6-1.43-1.3-.37-2.6-.71-3.92-1.03-1.31-.31-2.52-.67-3.62-1.07-1.1-.4-1.98-.96-2.65-1.67-.67-.71-1.01-1.66-1.01-2.83,0-1.03.28-1.95.83-2.76.56-.81,1.42-1.46,2.59-1.95,1.17-.48,2.65-.73,4.45-.73,1.34,0,2.73.2,4.17.6,1.44.4,2.8,1.03,4.09,1.88l1.07-2.53c-1.2-.83-2.63-1.48-4.28-1.95s-3.32-.71-5.01-.71c-2.54,0-4.62.38-6.25,1.13-1.63.76-2.83,1.75-3.62,3-.79,1.24-1.18,2.6-1.18,4.09,0,1.6.33,2.89,1.01,3.87s1.56,1.78,2.65,2.38c1.1.6,2.3,1.08,3.62,1.43,1.31.36,2.62.69,3.94,1.01,1.31.31,2.51.68,3.6,1.09,1.08.41,1.96.98,2.63,1.69.67.71,1.01,1.66,1.01,2.83,0,.97-.28,1.86-.83,2.65s-1.43,1.43-2.61,1.9c-1.18.47-2.72.71-4.6.71s-3.85-.35-5.63-1.05c-1.78-.7-3.2-1.56-4.26-2.59l-1.24,2.44c1.11,1.14,2.69,2.08,4.73,2.8,2.04.73,4.17,1.09,6.4,1.09,2.57,0,4.67-.38,6.31-1.13,1.64-.75,2.86-1.75,3.66-3s1.2-2.59,1.2-4.04c0-1.57-.34-2.84-1.01-3.81-.67-.97-1.56-1.75-2.65-2.33Z"/>
      <path class="cls-1" d="M375.25,460.55l-13.7,29.96h3.3l3.58-8h16.72l3.58,8h3.34l-13.7-29.96h-3.12ZM369.58,479.94l7.21-16.11,7.21,16.11h-14.42Z"/>
      <polygon class="cls-1" points="401.83 490.51 404.99 490.51 404.99 477.8 420.49 477.8 420.49 475.06 404.99 475.06 404.99 463.29 422.37 463.29 422.37 460.55 401.83 460.55 401.83 490.51"/>
      <polygon class="cls-1" points="436.88 476.64 452.38 476.64 452.38 473.95 436.88 473.95 436.88 463.29 454.26 463.29 454.26 460.55 433.72 460.55 433.72 490.51 454.91 490.51 454.91 487.77 436.88 487.77 436.88 476.64"/>
      <path class="cls-1" d="M466.81,486.06c-.63,0-1.16.21-1.6.64-.44.43-.66.98-.66,1.67s.22,1.21.66,1.67c.44.46.98.68,1.6.68s1.16-.23,1.61-.68c.44-.46.66-1.01.66-1.67s-.22-1.24-.66-1.67-.98-.64-1.61-.64Z"/>
      <polygon class="cls-1" points="512.65 482.74 499.64 460.55 497.03 460.55 497.03 490.51 500.06 490.51 500.06 466.68 511.84 486.7 513.33 486.7 525.11 466.54 525.11 490.51 528.14 490.51 528.14 460.55 525.53 460.55 512.65 482.74"/>
      <path class="cls-1" d="M567.03,464.61c-1.41-1.37-3.08-2.43-4.99-3.19-1.91-.76-4-1.13-6.25-1.13s-4.38.38-6.29,1.13c-1.91.76-3.57,1.83-4.99,3.21-1.41,1.38-2.51,3-3.3,4.84-.79,1.84-1.18,3.86-1.18,6.06s.39,4.22,1.18,6.06c.78,1.84,1.88,3.45,3.3,4.84,1.41,1.38,3.08,2.46,5.01,3.21,1.93.76,4.02,1.13,6.27,1.13s4.34-.38,6.25-1.13c1.91-.75,3.57-1.82,4.99-3.19,1.41-1.37,2.51-2.98,3.3-4.84.78-1.85,1.18-3.88,1.18-6.08s-.39-4.22-1.18-6.08c-.79-1.86-1.88-3.47-3.3-4.84ZM567.4,480.47c-.63,1.5-1.51,2.81-2.63,3.94-1.13,1.13-2.45,2-3.98,2.61-1.53.61-3.19.92-4.99.92s-3.47-.31-5.01-.92-2.88-1.48-4.02-2.61c-1.14-1.13-2.03-2.45-2.65-3.96-.63-1.51-.94-3.15-.94-4.92s.31-3.45.94-4.94,1.51-2.81,2.65-3.94c1.14-1.13,2.48-2,4.02-2.61,1.54-.61,3.21-.92,5.01-.92s3.46.31,4.99.92c1.53.61,2.85,1.48,3.98,2.61s2,2.44,2.63,3.94c.63,1.5.94,3.15.94,4.94s-.31,3.45-.94,4.94Z"/>
      <path class="cls-1" d="M601.17,479.79c1.83-.81,3.23-1.98,4.22-3.51s1.48-3.35,1.48-5.46-.49-4.02-1.48-5.54c-.98-1.53-2.39-2.7-4.22-3.51s-4.01-1.22-6.55-1.22h-11.21v29.96h3.17v-9.5h8.05c.85,0,1.64-.06,2.4-.15l6.84,9.66h3.47l-7.33-10.29c.4-.13.8-.27,1.17-.43ZM594.53,478.31h-7.96v-15.02h7.96c3,0,5.27.66,6.83,1.97s2.33,3.17,2.33,5.56-.78,4.21-2.33,5.52-3.83,1.97-6.83,1.97Z"/>
      <polygon class="cls-1" points="622.31 476.64 637.81 476.64 637.81 473.95 622.31 473.95 622.31 463.29 639.69 463.29 639.69 460.55 619.15 460.55 619.15 490.51 640.33 490.51 640.33 487.77 622.31 487.77 622.31 476.64"/>
      <path class="cls-1" d="M684.36,476.45c-1.1-.58-2.3-1.06-3.6-1.43-1.3-.37-2.6-.71-3.92-1.03-1.31-.31-2.52-.67-3.62-1.07-1.1-.4-1.98-.96-2.65-1.67-.67-.71-1.01-1.66-1.01-2.83,0-1.03.28-1.95.83-2.76.56-.81,1.42-1.46,2.59-1.95,1.17-.48,2.65-.73,4.45-.73,1.34,0,2.73.2,4.17.6,1.44.4,2.8,1.03,4.09,1.88l1.07-2.53c-1.2-.83-2.63-1.48-4.28-1.95s-3.32-.71-5.01-.71c-2.54,0-4.62.38-6.25,1.13-1.63.76-2.83,1.75-3.62,3-.79,1.24-1.18,2.6-1.18,4.09,0,1.6.33,2.89,1.01,3.87s1.56,1.78,2.65,2.38c1.1.6,2.3,1.08,3.62,1.43,1.31.36,2.62.69,3.94,1.01,1.31.31,2.51.68,3.6,1.09,1.08.41,1.96.98,2.63,1.69.67.71,1.01,1.66,1.01,2.83,0,.97-.28,1.86-.83,2.65s-1.43,1.43-2.61,1.9c-1.18.47-2.72.71-4.6.71s-3.85-.35-5.63-1.05c-1.78-.7-3.2-1.56-4.26-2.59l-1.24,2.44c1.11,1.14,2.69,2.08,4.73,2.8,2.04.73,4.17,1.09,6.4,1.09,2.57,0,4.67-.38,6.31-1.13,1.64-.75,2.86-1.75,3.66-3s1.2-2.59,1.2-4.04c0-1.57-.34-2.84-1.01-3.81-.67-.97-1.56-1.75-2.65-2.33Z"/>
      <polygon class="cls-1" points="702.87 476.64 718.37 476.64 718.37 473.95 702.87 473.95 702.87 463.29 720.25 463.29 720.25 460.55 699.7 460.55 699.7 490.51 720.89 490.51 720.89 487.77 702.87 487.77 702.87 476.64"/>
      <path class="cls-1" d="M737.24,466.65c1.14-1.13,2.48-2,4.02-2.61,1.54-.61,3.21-.92,5.01-.92s3.31.28,4.79.83c1.48.56,2.84,1.46,4.07,2.72l2.01-2.01c-1.31-1.46-2.93-2.55-4.84-3.27-1.91-.73-3.95-1.09-6.12-1.09s-4.34.38-6.25,1.13c-1.91.76-3.57,1.82-4.99,3.19-1.41,1.37-2.51,2.98-3.3,4.84-.79,1.85-1.18,3.88-1.18,6.08s.39,4.22,1.18,6.08c.78,1.86,1.88,3.47,3.27,4.84,1.4,1.37,3.05,2.43,4.96,3.19,1.91.76,4,1.13,6.25,1.13s4.25-.37,6.16-1.11c1.91-.74,3.52-1.84,4.84-3.3l-2.01-2.01c-1.23,1.26-2.58,2.17-4.07,2.74-1.48.57-3.08.86-4.79.86-1.8,0-3.47-.31-5.01-.92s-2.88-1.48-4.02-2.61c-1.14-1.13-2.03-2.44-2.68-3.94-.64-1.5-.96-3.15-.96-4.94s.32-3.45.96-4.94c.64-1.5,1.53-2.81,2.68-3.94Z"/>
      <path class="cls-1" d="M789.98,477.58c0,3.54-.8,6.15-2.4,7.83-1.6,1.68-3.87,2.53-6.81,2.53s-5.17-.84-6.76-2.53c-1.6-1.68-2.4-4.29-2.4-7.83v-17.04h-3.17v17.17c0,4.31,1.1,7.56,3.3,9.76,2.2,2.2,5.21,3.3,9.03,3.3s6.83-1.1,9.01-3.3c2.18-2.2,3.27-5.45,3.27-9.76v-17.17h-3.08v17.04Z"/>
      <path class="cls-1" d="M825.16,479.79c1.83-.81,3.23-1.98,4.22-3.51s1.48-3.35,1.48-5.46-.49-4.02-1.48-5.54c-.98-1.53-2.39-2.7-4.22-3.51s-4.01-1.22-6.55-1.22h-11.21v29.96h3.17v-9.5h8.05c.85,0,1.64-.06,2.4-.15l6.84,9.66h3.47l-7.33-10.29c.4-.13.8-.27,1.17-.43ZM818.53,478.31h-7.96v-15.02h7.96c3,0,5.27.66,6.83,1.97s2.33,3.17,2.33,5.56-.78,4.21-2.33,5.52-3.83,1.97-6.83,1.97Z"/>
      <polygon class="cls-1" points="846.31 476.64 861.8 476.64 861.8 473.95 846.31 473.95 846.31 463.29 863.69 463.29 863.69 460.55 843.14 460.55 843.14 490.51 864.33 490.51 864.33 487.77 846.31 487.77 846.31 476.64"/>
      <path class="cls-1" d="M876.23,486.06c-.63,0-1.16.21-1.6.64-.44.43-.66.98-.66,1.67s.22,1.21.66,1.67c.44.46.98.68,1.6.68s1.16-.23,1.61-.68c.44-.46.66-1.01.66-1.67s-.22-1.24-.66-1.67-.98-.64-1.61-.64Z"/>
    </g>
  </g>
</svg>